<svg width="861" height="580" xmlns="http://www.w3.org/2000/svg" xmlns:xlink="http://www.w3.org/1999/xlink" xml:space="preserve" overflow="hidden"><defs><clipPath id="clip0"><rect x="209" y="70" width="861" height="580"/></clipPath></defs><g clip-path="url(#clip0)" transform="translate(-209 -70)"><path d="M0 578.443C0 577.643 1.99923 571.112 4.53158 564.048 29.0554 493.542 69.9729 446.76 144.611 403.71 159.138 395.314 202.722 373.855 217.916 367.458 222.314 365.592 231.91 361.593 239.241 358.528 317.344 326.007 352.93 318.943 377.454 331.338 387.05 336.137 389.849 341.201 389.849 353.197 389.716 364.126 387.05 371.856 378.787 385.184 366.392 405.176 336.27 428.234 296.419 448.226 273.494 459.689 251.236 467.552 220.581 475.016 206.72 478.348 181.796 484.346 165.269 488.344 116.088 500.206 102.627 505.271 75.5707 521.931 53.1794 535.659 28.9221 552.32 30.3882 552.853 31.1879 553.119 38.9183 548.854 47.5816 543.39 71.439 528.595 93.0307 516.733 106.092 511.402 116.888 507.004 133.548 502.739 176.598 493.276 316.677 462.354 324.408 458.489 407.042 379.32 429.834 357.595 430.633 356.928 433.432 358.928 435.165 359.994 444.894 368.924 455.29 378.787 494.875 416.239 508.203 427.701 526.596 440.23 542.857 451.159 555.118 457.023 575.91 463.954 601.5 472.35 626.424 478.481 713.724 497.941 749.177 505.804 768.902 514.201 806.621 537.259 816.351 543.256 826.347 549.254 828.746 550.72 831.012 552.186 833.011 552.853 833.011 552.053 833.011 551.387 823.015 544.189 810.753 536.192 755.707 500.206 756.507 500.473 645.75 474.35 604.699 464.753 578.443 454.891 547.788 437.431 505.671 413.44 481.947 390.116 473.15 363.726 466.486 344 472.35 332.405 492.076 326.407 500.073 323.875 503.538 323.608 516.333 324.274 540.191 325.474 565.115 333.071 623.625 357.462 704.661 391.049 755.974 421.703 793.16 458.489 821.948 487.011 840.741 517.533 856.468 560.983 863.266 579.509 862.999 580.042 850.604 571.512 824.081 552.986 785.296 534.326 753.708 524.863 744.912 522.198 740.78 521.931 687.734 521.531 593.237 520.865 554.052 517.533 511.269 506.471 482.08 499.007 468.085 491.943 453.025 477.149 444.894 469.285 442.495 465.82 441.029 460.755L439.163 454.491 432.766 463.021C415.039 487.145 382.385 504.605 338.136 513.668 306.548 520.199 290.288 521.265 202.588 522.331 126.085 523.397 119.954 523.664 110.624 526.196 83.0345 533.66 41.0508 552.986 16.1271 569.779 7.9969 575.244 0.932972 579.776 0.666409 579.776 0.266563 579.776 0 579.109 0 578.443Z" fill="#002060" transform="matrix(1 0 0 -1 209 649.888)"/><path d="M414.773 339.602C344 260.832 298.818 182.063 280.691 106.226L279.892 102.627 352.93 102.627 426.102 102.627 427.035 141.678C427.435 163.004 428.234 205.92 428.634 236.975 429.167 267.896 429.967 293.22 430.5 293.22 431.433 293.22 432.233 262.432 433.965 154.34L434.898 102.627 507.937 102.627C548.188 102.627 581.108 103.16 581.108 103.693 581.108 104.226 578.709 113.289 575.644 123.819 558.584 184.195 520.732 251.369 468.885 313.878 455.557 330.006 431.966 355.862 430.633 355.862 429.967 355.862 422.903 348.532 414.773 339.602Z" fill="#002060" transform="matrix(1 0 0 -1 209 649.888)"/><path d="M351.597 78.1031C342.534 75.704 335.204 70.2395 330.939 63.0423 327.74 57.4444 327.207 55.3119 327.207 45.9822 327.207 37.0523 327.74 34.3867 330.539 29.322 341.201 10.396 367.858 6.79737 383.318 22.1248 391.448 30.3882 394.514 41.4506 391.848 53.9791 388.116 72.1054 369.724 83.1678 351.597 78.1031ZM370.657 67.3073C383.718 58.9105 385.451 34.6533 373.722 25.4568 360.527 15.0608 342.401 22.9245 338.402 40.7842 333.471 62.909 352.663 78.7695 370.657 67.3073Z" fill="#002060" transform="matrix(1 0 0 -1 209 649.888)"/><path d="M469.285 78.5029C453.025 75.4375 442.495 62.7757 442.495 46.1155 442.495 36.2526 444.761 29.8551 450.092 23.8574 457.423 15.7272 464.087 12.795 475.149 12.795 488.877 12.795 499.54 19.4591 505.804 31.8543 508.87 37.852 508.87 52.2464 505.937 59.3104 499.94 73.5715 485.146 81.3019 469.285 78.5029ZM483.546 68.7734C491.943 64.3751 497.141 54.9121 497.141 43.8497 497.141 22.2581 474.75 12.3952 460.755 27.8559 453.824 35.5862 451.159 47.8481 454.624 56.9113 456.223 61.3096 462.088 67.8404 465.82 69.3065 470.085 71.1724 479.681 70.7726 483.546 68.7734Z" fill="#002060" transform="matrix(1 0 0 -1 209 649.888)"/><path d="M260.832 72.5053C262.165 63.842 262.165 26.2565 260.832 18.7927L259.766 12.9283 271.628 13.728C290.554 14.9276 298.551 19.9923 298.551 30.9214 298.551 35.9861 295.486 43.983 293.486 43.983 292.953 43.983 291.487 44.9159 290.021 45.9822 287.622 47.8481 287.622 48.1147 291.754 52.6463 294.819 56.1116 295.885 58.644 295.885 62.3759 295.885 72.7718 289.221 77.1701 271.761 78.2364L259.899 79.0361 260.832 72.5053ZM278.292 70.506C286.156 67.8404 287.089 56.3782 279.758 52.6463 272.694 48.9144 271.895 49.7141 271.895 60.3766 271.895 68.6401 272.428 71.9721 273.894 71.9721 274.027 71.9721 276.026 71.3057 278.292 70.506ZM280.558 43.4498C291.221 38.9183 290.421 25.057 279.225 21.3251 276.693 20.5254 274.027 20.1255 273.228 20.6587 271.761 21.5916 271.362 43.05 272.828 44.3828 274.027 45.7156 275.493 45.5824 280.558 43.4498Z" fill="#002060" transform="matrix(1 0 0 -1 209 649.888)"/><path d="M399.179 45.9822 399.179 13.3282 405.976 13.3282 412.774 13.3282 411.707 18.926C411.174 22.1248 410.641 27.7226 410.508 31.5878 410.508 39.1848 410.374 39.0515 421.17 40.7842 432.899 42.5169 439.43 53.7125 435.698 65.4413 432.633 74.9043 424.902 78.5029 407.842 78.6362L399.179 78.6362 399.179 45.9822ZM420.237 69.3065C424.369 66.1077 426.635 58.9105 425.302 53.7125 424.236 49.7141 419.571 45.9822 414.24 44.7827L410.508 43.983 410.508 57.9776C410.508 71.8389 410.508 71.9721 413.707 71.9721 415.439 71.9721 418.371 70.7726 420.237 69.3065Z" fill="#002060" transform="matrix(1 0 0 -1 209 649.888)"/><path d="M514.468 77.57C514.468 76.9036 516.067 75.0376 517.933 73.1717L521.398 69.9729 520.865 41.5839 520.465 13.3282 526.996 13.3282C532.594 13.3282 533.26 13.5947 532.461 15.7272 531.394 18.2596 529.795 49.8474 530.595 53.9791 530.994 55.845 534.726 51.7133 544.989 37.9853 552.586 27.7226 559.383 17.993 560.183 16.3937 561.249 13.8613 562.582 13.3282 567.647 13.3282L573.778 13.3282 573.778 45.9822 573.778 78.6362 568.313 78.6362C565.381 78.6362 562.582 78.3697 562.182 77.9698 561.783 77.57 562.049 74.2379 562.716 70.7726 563.382 67.174 563.648 56.5115 563.515 47.1817L563.115 30.1217 549.654 48.7811C542.323 58.9105 534.593 69.8396 532.461 73.0384 528.862 78.5029 528.595 78.6362 521.665 78.6362 517.666 78.6362 514.468 78.1031 514.468 77.57Z" fill="#002060" transform="matrix(1 0 0 -1 209 649.888)"/><path d="M308.814 74.9043C305.882 71.7056 306.015 69.0399 309.08 65.1748 311.213 62.3759 312.013 62.2426 315.078 63.7087 317.744 64.9082 318.543 66.241 318.543 69.7064 318.543 77.0368 313.212 79.8358 308.814 74.9043Z" fill="#002060" transform="matrix(1 0 0 -1 209 649.888)"/><path d="M587.239 74.3712C584.44 70.3728 584.574 67.5738 587.772 64.6416 590.038 62.6424 590.971 62.5091 593.77 63.7087 596.302 64.9082 597.102 66.241 597.102 69.7064 597.102 77.3034 591.104 79.969 587.239 74.3712Z" fill="#002060" transform="matrix(1 0 0 -1 209 649.888)"/><path d="M307.214 35.9861 307.214 13.3282 312.546 13.3282 317.877 13.3282 317.877 35.9861 317.877 58.644 312.546 58.644 307.214 58.644 307.214 35.9861Z" fill="#002060" transform="matrix(1 0 0 -1 209 649.888)"/><path d="M585.773 35.9861 585.773 13.3282 592.037 13.3282 598.168 13.3282 596.836 18.3929C596.036 21.1918 595.769 30.9214 596.036 41.0508L596.702 58.644 591.238 58.644 585.773 58.644 585.773 35.9861Z" fill="#002060" transform="matrix(1 0 0 -1 209 649.888)"/></g></svg>